<mxfile host="app.diagrams.net" modified="2024-01-10T09:04:42.584Z" agent="Mozilla/5.0 (X11; Linux x86_64; rv:121.0) Gecko/20100101 Firefox/121.0" version="22.1.17" etag="0irn7h7pE_7nMlIv3eEY" type="github">
  <diagram name="Page-1" id="v7Tk4p_ESghaIahxD297">
    <mxGraphModel>
      <root>
        <mxCell id="0" />
        <mxCell id="1" parent="0" />
      </root>
    </mxGraphModel>
  </diagram>
</mxfile>
